<?xml version="1.0" encoding="UTF-8" standalone="no"?>
<svg
   viewBox="0 0 48 48"
   width="48px"
   height="48px"
   version="1.1"
   id="svg7"
   sodipodi:docname="map-pin.svg"
   inkscape:version="1.3.2 (091e20e, 2023-11-25, custom)"
   xmlns:inkscape="http://www.inkscape.org/namespaces/inkscape"
   xmlns:sodipodi="http://sodipodi.sourceforge.net/DTD/sodipodi-0.dtd"
   xmlns="http://www.w3.org/2000/svg"
   xmlns:svg="http://www.w3.org/2000/svg">
  <defs
     id="defs7" />
  <sodipodi:namedview
     id="namedview7"
     pagecolor="#ffffff"
     bordercolor="#000000"
     borderopacity="0.25"
     inkscape:showpageshadow="2"
     inkscape:pageopacity="0.0"
     inkscape:pagecheckerboard="0"
     inkscape:deskcolor="#d1d1d1"
     inkscape:zoom="39.604167"
     inkscape:cx="24.037875"
     inkscape:cy="24"
     inkscape:window-width="3840"
     inkscape:window-height="2097"
     inkscape:window-x="1272"
     inkscape:window-y="-8"
     inkscape:window-maximized="1"
     inkscape:current-layer="svg7" />
  <linearGradient
     id="iu22Zjf0u3e5Ts0QLZZhJa"
     x1="11.274"
     x2="36.726"
     y1="9.271"
     y2="34.723"
     gradientUnits="userSpaceOnUse">
    <stop
       offset="0"
       stop-color="#d43a02"
       id="stop1" />
    <stop
       offset="1"
       stop-color="#b9360c"
       id="stop2" />
  </linearGradient>
  <path
     fill="url(#iu22Zjf0u3e5Ts0QLZZhJa)"
     d="M36.902,34.536C40.052,31.294,42,26.877,42,22c0-9.94-8.06-18-18-18S6,12.06,6,22 c0,4.877,1.948,9.294,5.098,12.536c0.018,0.019,0.03,0.04,0.048,0.059l0.059,0.059c0.047,0.048,0.094,0.095,0.142,0.142 l11.239,11.239c0.781,0.781,2.047,0.781,2.828,0l11.239-11.239c0.048-0.047,0.095-0.094,0.142-0.142l0.059-0.059 C36.873,34.576,36.885,34.554,36.902,34.536z"
     id="path2"
     style="fill:#aa0044" />
  <radialGradient
     id="iu22Zjf0u3e5Ts0QLZZhJb"
     cx="24"
     cy="22.5"
     r="9.5"
     gradientUnits="userSpaceOnUse">
    <stop
       offset=".177"
       id="stop3" />
    <stop
       offset="1"
       stop-opacity="0"
       id="stop4" />
  </radialGradient>
  <circle
     cx="24"
     cy="22.5"
     r="9.5"
     fill="url(#iu22Zjf0u3e5Ts0QLZZhJb)"
     id="circle4" />
  <circle
     cx="24"
     cy="22"
     r="8"
     fill="#f9f9f9"
     id="circle5" />
  <radialGradient
     id="iu22Zjf0u3e5Ts0QLZZhJc"
     cx="23.842"
     cy="43.905"
     r="13.637"
     gradientUnits="userSpaceOnUse">
    <stop
       offset=".177"
       id="stop5" />
    <stop
       offset="1"
       stop-opacity="0"
       id="stop6" />
  </radialGradient>
  <path
     fill="url(#iu22Zjf0u3e5Ts0QLZZhJc)"
     d="M24,30c-4.747,0-8.935,2.368-11.467,5.982l10.052,10.052c0.781,0.781,2.047,0.781,2.828,0 l10.052-10.052C32.935,32.368,28.747,30,24,30z"
     id="path6" />
  <path
     fill="#de490d"
     d="M24,32c-4.196,0-7.884,2.157-10.029,5.42l8.615,8.615c0.781,0.781,2.047,0.781,2.828,0l8.615-8.615 C31.884,34.157,28.196,32,24,32z"
     id="path7"
     style="fill:#d40055" />
</svg>
